<svg width="157" height="35" viewBox="0 0 157 35" fill="none" xmlns="http://www.w3.org/2000/svg">
<g clip-path="url(#clip0_5_335)">
<path fill-rule="evenodd" clip-rule="evenodd" d="M0.489076 15.9263H36.0025C36.2699 15.9263 36.4916 16.1824 36.4916 16.4857C36.4916 16.7957 36.2699 17.0451 36.0025 17.0451H0.489076C0.221715 17.0451 0 16.7957 0 16.4857C0 16.1756 0.221715 15.9263 0.489076 15.9263Z" fill="#008D3B"/>
<path fill-rule="evenodd" clip-rule="evenodd" d="M0.489076 17.9752H36.0025C36.2699 17.9752 36.4916 18.2313 36.4916 18.5346C36.4916 18.8446 36.2699 19.094 36.0025 19.094H0.489076C0.221715 19.1007 0 18.8513 0 18.5413C0 18.2313 0.221715 17.9819 0.489076 17.9819V17.9752Z" fill="#008D3B"/>
<path fill-rule="evenodd" clip-rule="evenodd" d="M0.489076 20.0308H36.0025C36.2699 20.0308 36.4916 20.2802 36.4916 20.5902C36.4916 20.9003 36.2699 21.1496 36.0025 21.1496H0.489076C0.221715 21.1564 0 20.907 0 20.597C0 20.2869 0.221715 20.0376 0.489076 20.0376V20.0308Z" fill="#008D3B"/>
<path fill-rule="evenodd" clip-rule="evenodd" d="M0.489076 22.0865H36.0025C36.2699 22.0865 36.4916 22.3426 36.4916 22.6459C36.4916 22.9559 36.2699 23.2053 36.0025 23.2053H0.489076C0.221715 23.212 0 22.9559 0 22.6459C0 22.3359 0.221715 22.0865 0.489076 22.0865Z" fill="#008D3B"/>
<path fill-rule="evenodd" clip-rule="evenodd" d="M0.489076 24.1421H36.0025C36.2699 24.1421 36.4916 24.3915 36.4916 24.7015C36.4916 25.0115 36.2699 25.2609 36.0025 25.2609H0.489076C0.221715 25.2609 0 25.0115 0 24.7015C0 24.3915 0.221715 24.1421 0.489076 24.1421Z" fill="#008D3B"/>
<path fill-rule="evenodd" clip-rule="evenodd" d="M21.7606 35V29.5138C21.7606 29.5138 23.9712 29.4261 24.7733 28.4758C25.595 27.4985 25.4189 25.2946 25.4906 25.2946H32.5594C32.5594 25.2407 32.4616 27.6064 33.2767 28.4758C33.9027 29.1498 34.3266 29.4868 36.5894 29.4868V35.0067H21.4672H21.7737L21.7606 35Z" fill="#E7560F"/>
<path fill-rule="evenodd" clip-rule="evenodd" d="M6.9188 24.9981L24.0626 0H32.579V15.9195H25.5494V8.99769L13.3094 27.0739C13.1007 27.2896 12.729 27.8288 12.729 28.2602C12.729 29.224 13.5507 29.4666 14.3528 29.4666H14.8092L14.7832 35H0.0652161V29.4868C2.09977 29.4868 3.31268 29.0892 4.17998 28.4758C5.00163 27.8895 6.38408 25.8001 6.92533 24.9981H6.9188Z" fill="#E7560F"/>
<path fill-rule="evenodd" clip-rule="evenodd" d="M142.243 20.7115C142.797 18.5818 143.873 16.9035 145.471 15.6904C147.068 14.4772 148.999 13.8706 151.261 13.8706C153.524 13.8706 155.122 14.4772 156.081 15.6904C157.046 16.9035 157.254 18.575 156.7 20.7115C156.146 22.8413 155.076 24.5128 153.479 25.7192C151.881 26.9257 149.951 27.5255 147.681 27.5255C145.412 27.5255 143.834 26.9189 142.869 25.7058C141.904 24.4926 141.695 22.8279 142.243 20.7048V20.7115ZM150.753 15.8386C149.912 15.8386 149.201 16.2228 148.62 16.9912C148.04 17.7595 147.525 18.9861 147.088 20.6846C146.638 22.41 146.508 23.6569 146.684 24.4319C146.866 25.2003 147.375 25.5844 148.21 25.5844C149.044 25.5844 149.768 25.2003 150.349 24.4387C150.929 23.6771 151.438 22.4437 151.874 20.7452C152.318 19.0266 152.455 17.7865 152.272 17.0114C152.09 16.2363 151.581 15.8521 150.746 15.8521L150.753 15.8386Z" fill="#008D3B"/>
<path fill-rule="evenodd" clip-rule="evenodd" d="M133.453 27.1481L133.929 25.3216H134.489C134.966 25.3216 135.259 25.2946 135.376 25.2407C135.494 25.1868 135.572 25.0857 135.611 24.9374C135.637 24.8363 135.657 24.742 135.663 24.6476C135.67 24.56 135.676 24.4724 135.676 24.3848L135.585 23.0031H132.227L131.516 24.2297C131.405 24.4185 131.32 24.5667 131.268 24.6746C131.216 24.7824 131.177 24.8768 131.157 24.9644C131.131 25.079 131.183 25.1598 131.314 25.2272C131.451 25.2879 131.653 25.3216 131.933 25.3216H132.546L132.07 27.1481H126.501L126.977 25.3216H127.44C127.753 25.3216 128.047 25.2205 128.314 25.0116C128.581 24.8094 128.855 24.4656 129.136 24.0006L134.939 14.2682H139.452L139.856 23.9669C139.895 24.6004 139.974 24.9913 140.104 25.1261C140.234 25.2609 140.476 25.3283 140.841 25.3283H141.493L141.017 27.1548H133.453V27.1481ZM135.481 21.1564L135.357 17.254L133.283 21.1564H135.481Z" fill="#008D3B"/>
<path fill-rule="evenodd" clip-rule="evenodd" d="M118.852 25.261H119.83C120.73 25.261 121.467 24.9105 122.041 24.2095C122.615 23.5086 123.117 22.3359 123.541 20.6981C123.965 19.0536 124.075 17.8808 123.867 17.1731C123.658 16.4722 123.097 16.1217 122.197 16.1217H121.219L118.852 25.261ZM122.68 14.2615C125.171 14.2615 126.886 14.7872 127.818 15.8454C128.751 16.9036 128.934 18.5211 128.373 20.6913C127.805 22.8683 126.782 24.4926 125.295 25.5508C123.815 26.6089 121.826 27.1414 119.341 27.1414H112.566L113.042 25.3149H113.668C114.079 25.3149 114.366 25.261 114.516 25.1666C114.672 25.0655 114.809 24.7824 114.933 24.3039L114.959 24.2095L116.785 17.1799C116.915 16.6811 116.935 16.3711 116.844 16.2565C116.752 16.142 116.491 16.0813 116.048 16.0813H115.442L115.911 14.2615H122.686H122.68Z" fill="#008D3B"/>
<path fill-rule="evenodd" clip-rule="evenodd" d="M104.01 27.1481L104.486 25.3216H105.047C105.523 25.3216 105.817 25.2946 105.934 25.2407C106.051 25.1868 106.13 25.0857 106.169 24.9374C106.195 24.8363 106.214 24.742 106.221 24.6476C106.227 24.56 106.234 24.4724 106.234 24.3848L106.143 23.0031H102.784L102.074 24.2297C101.956 24.4185 101.878 24.5667 101.826 24.6746C101.774 24.7824 101.734 24.8768 101.715 24.9644C101.689 25.079 101.741 25.1598 101.871 25.2272C102.008 25.2879 102.21 25.3216 102.491 25.3216H103.11L102.634 27.1481H97.0654L97.5414 25.3216H98.0044C98.3174 25.3216 98.6108 25.2205 98.8782 25.0116C99.1456 24.8094 99.4195 24.4656 99.6999 24.0006L105.504 14.2682H110.01L110.414 23.9669C110.453 24.6004 110.531 24.9913 110.662 25.1261C110.792 25.2609 111.04 25.3283 111.399 25.3283H112.051L111.575 27.1548H104.01V27.1481ZM106.038 21.1564L105.914 17.254L103.841 21.1564H106.038Z" fill="#008D3B"/>
<path fill-rule="evenodd" clip-rule="evenodd" d="M97.7044 22.3022C97.2088 24.0276 96.335 25.3553 95.0895 26.2854C93.844 27.2155 92.2985 27.6806 90.4595 27.6806C88.3076 27.6806 86.8013 27.0942 85.947 25.9147C85.0928 24.7352 84.9493 23.0503 85.5166 20.8666C86.0513 18.7974 87.0817 17.1394 88.6076 15.8926C90.1335 14.6457 91.8942 14.0256 93.9026 14.0256C94.5743 14.0256 95.1873 14.0998 95.7285 14.248C96.2763 14.3963 96.7719 14.6187 97.2153 14.9288L97.7174 14.2211H99.739L98.363 19.5253H96.1328C96.2372 18.2852 96.1328 17.3888 95.8329 16.8294C95.5264 16.27 94.9982 15.9937 94.2417 15.9937C93.3679 15.9937 92.6245 16.3778 92.0311 17.1394C91.4312 17.9078 90.916 19.1344 90.4791 20.8329C90.0226 22.5852 89.9053 23.8388 90.1139 24.6139C90.3291 25.3823 90.8965 25.7664 91.8224 25.7664C92.6637 25.7664 93.4331 25.4564 94.1309 24.8363C94.8286 24.2095 95.3503 23.3738 95.6894 22.3156H97.6914L97.7044 22.3022Z" fill="#008D3B"/>
<path fill-rule="evenodd" clip-rule="evenodd" d="M76.3937 27.1481L76.8698 25.3216H77.4306C77.9066 25.3216 78.2 25.2946 78.3174 25.2407C78.4348 25.1868 78.5131 25.0857 78.5522 24.9374C78.5783 24.8363 78.5978 24.742 78.6044 24.6476C78.6109 24.56 78.6174 24.4724 78.6174 24.3848L78.5261 23.0031H75.1678L74.457 24.2297C74.3461 24.4185 74.2614 24.5667 74.2092 24.6746C74.157 24.7824 74.1179 24.8768 74.0983 24.9644C74.0722 25.079 74.1244 25.1598 74.2548 25.2272C74.3918 25.2879 74.5939 25.3216 74.8743 25.3216H75.4873L75.0113 27.1481H69.4423L69.9184 25.3216H70.3813C70.6944 25.3216 70.9878 25.2205 71.2552 25.0116C71.5225 24.8094 71.7964 24.4656 72.0768 24.0006L77.8805 14.2682H82.3931L82.7974 23.9669C82.83 24.6004 82.9147 24.9913 83.0386 25.1261C83.1691 25.2609 83.4169 25.3283 83.7755 25.3283H84.4276L83.9516 27.1548H76.3872L76.3937 27.1481ZM78.4218 21.1564L78.2979 17.254L76.2242 21.1564H78.4218Z" fill="#008D3B"/>
<path fill-rule="evenodd" clip-rule="evenodd" d="M63.6973 16.2835C63.0126 16.2835 62.4322 16.5261 61.9432 16.9979C61.4541 17.4764 61.0954 18.1706 60.8542 19.0872L60.8411 19.1412H58.9957L60.2607 14.2682H73.381L72.1159 19.1412H70.2901L70.3031 19.0872C70.5379 18.1841 70.5379 17.4832 70.2966 17.0046C70.0553 16.5194 69.5858 16.2835 68.9011 16.2835H68.3533L66.2992 24.2163C66.1688 24.715 66.1557 25.0183 66.2536 25.1396C66.3514 25.2609 66.6122 25.3216 67.0556 25.3216H68.099L67.623 27.1481H59.4195L59.8956 25.3216H60.8672C61.2845 25.3216 61.5715 25.2677 61.7345 25.1666C61.8975 25.0587 62.041 24.742 62.1779 24.2095L64.232 16.2767H63.6843L63.6973 16.2835Z" fill="#008D3B"/>
<path fill-rule="evenodd" clip-rule="evenodd" d="M50.5444 27.1481L51.0205 25.3216H51.5813C52.0573 25.3216 52.3507 25.2946 52.4681 25.2407C52.5855 25.1868 52.6638 25.0857 52.7029 24.9374C52.729 24.8363 52.7485 24.742 52.755 24.6476C52.7616 24.56 52.7681 24.4724 52.7681 24.3848L52.6768 23.0031H49.3185L48.6077 24.2297C48.4968 24.4185 48.4121 24.5667 48.3599 24.6746C48.3077 24.7824 48.2686 24.8768 48.249 24.9644C48.2229 25.079 48.2751 25.1598 48.4055 25.2272C48.5425 25.2879 48.7446 25.3216 49.025 25.3216H49.638L49.162 27.1481H43.593L44.0691 25.3216H44.532C44.8451 25.3216 45.1385 25.2205 45.4059 25.0116C45.6732 24.8094 45.9471 24.4656 46.2275 24.0006L52.0312 14.2682H56.5438L56.9481 23.9669C56.9872 24.6004 57.0654 24.9913 57.1959 25.1261C57.3263 25.2609 57.5741 25.3283 57.9327 25.3283H58.5848L58.1088 27.1548H50.5444V27.1481ZM52.5659 21.1564L52.442 17.254L50.3684 21.1564H52.5659Z" fill="#008D3B"/>
<path fill-rule="evenodd" clip-rule="evenodd" d="M135.748 11.8823H140.326L139.641 13.0685H135.057L135.748 11.8823Z" fill="#008D3B"/>
</g>
<defs>
<clipPath id="clip0_5_335">
<rect width="157" height="35" fill="white"/>
</clipPath>
</defs>
</svg>
