<svg width="162" height="29" viewBox="0 0 162 29" fill="none" xmlns="http://www.w3.org/2000/svg">
<g clip-path="url(#clip0_5_353)">
<path d="M130.533 0.97538C130.611 0.89888 130.682 0.867004 130.747 0.867004C130.865 0.867004 130.943 0.969005 130.943 1.09013C130.943 1.16663 130.904 1.24313 130.832 1.31326C127.967 4.8004 125.883 8.88041 125.883 14.5351C125.883 20.1897 127.967 24.1869 130.832 27.674C130.904 27.7441 130.936 27.827 130.943 27.8971C130.943 28.0182 130.865 28.1202 130.747 28.1202C130.682 28.1202 130.604 28.0884 130.533 28.0119L118.315 16.4476C117.703 15.9376 117.319 15.3383 117.319 14.4904C117.319 13.6426 117.71 13.0433 118.315 12.5333L130.533 0.97538Z" fill="#E52420"/>
<path d="M139.917 0C135.137 0 133.268 6.6364 133.268 14.5414C133.268 22.4465 135.137 29 139.917 29C142.789 29 145.231 27.3552 145.244 26.0037C145.244 25.7105 145.127 25.4236 144.873 25.175C143.512 23.8872 142.984 22.6058 142.978 21.4711C142.971 19.3036 144.892 17.6907 146.657 17.6907C149.093 17.6907 150.525 19.565 150.525 21.9875C150.525 24.2825 149.522 26.2014 148.441 27.7314C148.396 27.7951 148.383 27.8652 148.383 27.9226C148.383 28.0437 148.454 28.1394 148.565 28.1394C148.63 28.1394 148.708 28.1075 148.793 28.0246L161.01 16.4603C161.616 15.9503 162.006 15.3511 162.006 14.5032C162.006 13.6553 161.616 13.0561 161.01 12.5461L148.787 0.975379C148.702 0.898879 148.624 0.860629 148.559 0.860629C148.448 0.860629 148.376 0.962629 148.376 1.08375C148.376 1.1475 148.396 1.21763 148.435 1.28138C149.522 2.81139 150.519 4.7239 150.519 7.01891C150.519 9.44142 149.086 11.3157 146.65 11.3157C144.886 11.3157 142.965 9.70279 142.971 7.53528C142.978 6.40053 143.512 5.11277 144.866 3.83139C145.12 3.58277 145.237 3.30226 145.237 3.00264C145.231 1.65113 142.782 0 139.91 0L139.917 0Z" fill="#2F5CA7"/>
<path d="M16.3003 19.2781C16.3003 18.0732 16.8408 17.0979 17.759 16.4348C18.6708 15.7782 19.9472 15.4276 21.4255 15.4276C22.3502 15.4276 23.301 15.5933 23.9653 15.8738V14.5223C23.9457 13.1581 23.4182 12.3803 21.8488 12.3676C21.5557 12.3676 20.9045 12.4441 20.364 12.6226C20.4161 12.8202 20.4486 13.0178 20.4486 13.2155C20.4486 13.6681 20.2988 14.0888 20.0188 14.4012C19.7388 14.7072 19.322 14.8985 18.8205 14.8985C17.9219 14.8985 17.2381 14.1781 17.2381 13.2792C17.2576 11.6217 19.309 10.5061 22.0572 10.5061C24.2323 10.5061 25.5999 11.0097 26.3292 11.9277C26.9935 12.7501 27.026 13.955 27.026 15.6571V20.0814C27.0391 20.942 27.534 21.1715 28.6216 21.3372L28.7453 21.35V21.4775C28.6737 22.6441 27.7945 23.1286 26.8502 23.2051C26.7656 23.2115 26.6874 23.2179 26.6027 23.2179C25.678 23.2179 24.7793 22.7716 24.356 21.8664C23.7699 22.3445 22.4544 23.2434 20.7547 23.2498C18.2214 23.2498 16.3003 21.5731 16.2938 19.2845L16.3003 19.2781ZM93.979 22.6632C93.7511 22.3572 93.6339 21.962 93.5232 21.5094C93.3994 21.6496 93.2496 21.7962 93.0282 22.0066C92.2012 22.7652 91.1201 23.2243 89.9023 23.2243C88.5738 23.2243 87.4407 22.727 86.7243 21.8919C85.6172 20.5977 85.6237 18.9594 85.6237 16.6261V14.3821C85.5977 13.4768 85.3111 13.1645 84.445 13.139C84.3343 13.139 84.2106 13.1453 84.0803 13.1581L83.9761 13.1708L83.937 13.0752C83.8719 12.9095 83.8394 12.7437 83.8394 12.5907C83.8654 11.507 85.2721 10.9268 86.0926 10.7547C86.3792 10.7101 86.6527 10.6654 86.9132 10.6654C87.5839 10.6654 88.0854 10.8758 88.3915 11.2583C88.704 11.6408 88.8278 12.1636 88.8278 12.7692L88.8082 16.6006C88.8082 18.0159 88.9124 19.0741 89.2316 19.7562C89.5572 20.432 90.0456 20.7507 90.9443 20.7571C91.9276 20.7571 92.5203 20.3427 92.898 19.7244C93.2757 19.106 93.4124 18.2772 93.4124 17.474V14.3693C93.3864 13.4641 93.0933 13.1517 92.2337 13.1262C92.123 13.1262 91.9993 13.1326 91.869 13.1453L91.7648 13.1581L91.7258 13.0625C91.6606 12.8967 91.6281 12.731 91.6281 12.578C91.6541 11.4942 93.0608 10.9141 93.8878 10.7419C94.1744 10.6973 94.4479 10.6527 94.7149 10.6527C95.3857 10.6527 95.8806 10.8631 96.1997 11.2456C96.5123 11.6281 96.636 12.1508 96.636 12.7565C96.636 13.1963 96.5905 13.9741 96.5905 17.2445C96.5905 18.6215 96.5644 19.3546 96.5644 19.5777C96.5839 20.5212 96.9095 20.942 97.7952 20.9611C97.8864 20.9611 97.9906 20.9547 98.0948 20.942L98.199 20.9292L98.2381 21.0249C98.3032 21.1906 98.3357 21.35 98.3357 21.4966C98.3032 22.5549 96.8965 22.982 96.076 23.1414C95.7959 23.186 95.5355 23.2243 95.3075 23.2243H95.288C94.6563 23.2243 94.233 23.0075 93.966 22.6441L93.979 22.6632ZM49.487 17.066C49.487 15.1598 50.1252 13.5151 51.2453 12.3485C52.3654 11.1818 53.9674 10.4933 55.8625 10.4933C57.5883 10.4933 58.8647 11.1181 59.7048 12.017C60.5449 12.9158 60.9421 14.0761 60.9421 15.1471C60.9421 15.7782 60.8054 16.3711 60.5253 16.8683L60.4862 16.9385H52.7757C52.9059 19.1379 54.3321 20.6742 56.8198 20.6806C58.3502 20.6806 59.5289 19.8582 59.9197 19.3674L60.0043 19.2654L60.1085 19.3419C60.33 19.4949 60.5709 19.7817 60.5644 20.33C60.5579 21.5986 59.0405 23.2179 55.6802 23.2243C52.2677 23.2243 49.487 20.5595 49.487 17.0724V17.066ZM76.8191 23.1988C75.0803 23.1988 73.4978 22.5612 72.3451 21.4392C71.199 20.3236 70.4891 18.7235 70.4891 16.8237C70.4891 13.0625 73.5174 10.4997 76.9298 10.4933C78.7663 10.4933 80.3618 11.1308 81.4884 12.2465C82.6216 13.3621 83.2793 14.9495 83.2793 16.8237C83.2793 18.7044 82.589 20.2981 81.4298 21.4265C80.2706 22.5485 78.6556 23.1988 76.8191 23.1988ZM100.459 22.8226C99.9247 22.6824 99.5796 22.3955 99.5796 21.962C99.5796 21.7899 99.6317 21.6114 99.7229 21.4137L99.7489 21.35L99.814 21.3372C100.016 21.299 100.368 21.197 100.654 20.9675C100.973 20.7125 101.097 20.3555 101.097 19.3482V14.2801C101.071 13.4258 100.876 13.1262 100.146 13.1071C99.9834 13.1071 99.788 13.1262 99.5666 13.1708L99.4559 13.19L99.4103 13.088C99.3321 12.8967 99.2996 12.7182 99.2996 12.5461C99.3191 11.5325 100.452 11.0097 101.214 10.7738C101.527 10.6846 101.794 10.6399 102.074 10.6399C103.109 10.6399 103.669 11.3667 103.91 12.3038C104.588 11.2137 105.669 10.4933 106.737 10.4869C107.74 10.4869 108.742 11.1308 108.742 12.3421C108.742 13.2027 108.117 14.108 107.082 14.1143C106.313 14.1143 105.636 13.6171 105.486 12.884C104.9 13.0752 104.073 13.7956 104.06 16.2946V19.3546C104.06 20.3555 104.21 20.7189 104.496 20.9739C104.796 21.197 105.408 21.3054 105.623 21.35L105.688 21.3627L105.714 21.4265C105.812 21.6432 105.87 21.8345 105.87 22.0194C105.87 22.4274 105.558 22.7079 105.056 22.8481C104.548 22.9948 103.806 23.0521 102.797 23.0521C101.761 23.0521 100.98 22.9948 100.439 22.8418L100.459 22.8226ZM63.0977 22.8226C62.5572 22.676 62.212 22.3891 62.212 21.9556C62.212 21.7899 62.2641 21.605 62.3553 21.4137L62.3813 21.35L62.4465 21.3372C62.6548 21.299 62.9935 21.197 63.2996 20.9675C63.6122 20.7061 63.7359 20.3491 63.7424 19.3419V12.68L61.9124 12.6162L61.8799 12.5397C61.7887 12.323 61.7431 12.1126 61.7431 11.915C61.7431 11.2647 62.2576 10.8312 62.8958 10.8312H63.6968V10.0917C63.6968 8.30669 64.0355 7.29306 64.4978 6.6173C65.2077 5.53355 66.445 4.78767 68.3336 4.79405C70.704 4.79405 72.6903 5.87143 72.7033 7.60543C72.7033 8.35769 72.1693 9.28844 71.0557 9.28844C70.2221 9.28844 69.4537 8.60631 69.4472 7.73931C69.4472 7.42056 69.5579 7.09543 69.7142 6.85956C69.4667 6.6428 68.9913 6.5153 68.5355 6.52168C67.7996 6.52168 67.3958 6.77668 67.1418 7.18468C66.8878 7.59906 66.8032 8.20469 66.8032 8.89319V10.8121H69.9421L69.9812 10.8949C70.0789 11.1181 70.1179 11.3348 70.1179 11.5388C70.1179 12.2082 69.636 12.7055 69.0239 12.7628C68.7894 12.7883 68.542 12.7883 68.3205 12.7883C67.7996 12.7883 67.2786 12.7501 66.8944 12.7437V19.3546C66.8944 20.3555 67.0637 20.7125 67.3763 20.9739C67.6498 21.1906 68.4313 21.3054 68.6592 21.35L68.7243 21.3627L68.7504 21.4265C68.835 21.605 68.8806 21.7707 68.8806 21.9301C68.8806 22.3891 68.5029 22.676 67.9233 22.829C67.3437 22.9884 66.5166 23.0521 65.4616 23.0521C64.4262 23.0521 63.6447 22.9948 63.0977 22.8418V22.8226ZM41.1838 22.8226C40.6498 22.6824 40.3046 22.3891 40.3046 21.962C40.3046 21.7899 40.3567 21.6114 40.4479 21.4137L40.4805 21.35L40.5521 21.3372C40.7605 21.299 41.0991 21.197 41.3987 20.9675C41.7113 20.7061 41.8415 20.3491 41.8415 19.3419V14.2737C41.8155 13.4195 41.6136 13.1198 40.8907 13.1007C40.7279 13.1007 40.5326 13.1198 40.3111 13.1645L40.2004 13.1836L40.1614 13.0816C40.0832 12.8903 40.0441 12.7055 40.0441 12.527C40.0637 11.5197 41.1968 10.9969 41.9588 10.7674C42.2583 10.6782 42.5384 10.6336 42.8054 10.6336C43.8473 10.6336 44.4139 11.3476 44.6548 12.272C45.3386 11.1946 46.4197 10.4869 47.4812 10.4806C48.4711 10.4806 49.487 11.1181 49.487 12.3357C49.487 13.1963 48.8618 14.108 47.8133 14.108C47.0449 14.108 46.3741 13.6107 46.2308 12.8776C45.6382 13.0688 44.7981 13.7892 44.7851 16.2882V19.3482C44.7851 20.3491 44.9414 20.7125 45.2475 20.9675C45.534 21.1906 46.1462 21.299 46.3741 21.3436L46.4392 21.3564L46.4718 21.4201C46.5695 21.6305 46.6281 21.8281 46.6281 22.0066C46.6281 22.4146 46.3155 22.7015 45.814 22.8354C45.2996 22.982 44.5572 23.0394 43.5478 23.0394C42.5123 23.0394 41.7373 22.982 41.1903 22.829L41.1838 22.8226ZM30.8292 22.8226C30.2952 22.6824 29.9566 22.3891 29.9566 21.962C29.9566 21.7899 30.0087 21.6114 30.0999 21.4137L30.1324 21.35L30.1975 21.3372C30.4059 21.299 30.7446 21.197 31.0507 20.9675C31.3632 20.7061 31.487 20.3491 31.4935 19.3419V14.2737C31.4674 13.4195 31.2656 13.1198 30.5362 13.1007C30.3734 13.1007 30.178 13.1198 29.9631 13.1645L29.8524 13.1836L29.8133 13.0816C29.7352 12.8903 29.6961 12.7055 29.6961 12.527C29.7156 11.5197 30.8488 10.9969 31.6172 10.7674C31.9168 10.6782 32.1968 10.6336 32.4573 10.6336C33.4993 10.6336 34.0658 11.3476 34.3068 12.272C34.9906 11.2009 36.0716 10.4869 37.1331 10.4806C38.123 10.4806 39.1389 11.1181 39.1454 12.3357C39.1454 13.1963 38.5203 14.108 37.4718 14.108C36.7033 14.108 36.0326 13.6107 35.8893 12.8776C35.2967 13.0688 34.4566 13.7892 34.4501 16.2882V19.3482C34.4501 20.3491 34.5999 20.7125 34.9059 20.9675C35.1925 21.1906 35.8046 21.299 36.0326 21.3436L36.1042 21.3564L36.1302 21.4201C36.2279 21.6305 36.2865 21.8281 36.2865 22.0066C36.2865 22.4146 35.9739 22.7015 35.466 22.8354C34.958 22.982 34.2091 23.0394 33.1997 23.0394C32.1643 23.0394 31.3893 22.982 30.8423 22.829L30.8292 22.8226ZM74.0188 16.4795C74.0188 19.8136 75.5036 21.2416 76.9559 21.248C78.6165 21.248 79.8148 19.8136 79.8278 17.0086C79.8278 15.5423 79.4957 14.3757 78.9551 13.5788C78.4146 12.782 77.6722 12.3612 76.8256 12.3612C75.0999 12.3612 74.0318 13.8848 74.0188 16.4795ZM21.966 17.1807C20.5984 17.1935 19.6802 17.8246 19.6737 19.0677C19.6802 20.2407 20.4942 21.0312 21.7641 21.0376C22.5912 21.0376 23.4313 20.5914 23.9653 19.9475V18.2262C23.9653 17.9904 23.809 17.7354 23.4703 17.5314C23.1317 17.3274 22.6237 17.1807 21.966 17.1807ZM57.3538 15.1662C57.6013 15.1662 57.6664 15.1088 57.712 15.026C57.7641 14.9431 57.7771 14.7837 57.7706 14.5797C57.7446 13.4258 56.8263 12.3548 55.4132 12.3548C53.6288 12.3548 52.9059 13.751 52.7952 15.1598H57.3473L57.3538 15.1662ZM2.47467 21.0121C0.970333 19.5012 0 17.3019 0 14.5542C0 11.9277 0.950796 9.70919 2.42909 8.14731C3.90738 6.5918 5.91968 5.68655 8.04269 5.68655C11.8524 5.68655 14.5355 8.30031 14.555 10.5507C14.555 11.7556 13.7735 12.6863 12.7185 12.6927C12.1975 12.6927 11.7091 12.5206 11.3509 12.1891C10.9928 11.8576 10.7713 11.3794 10.7713 10.7866C10.7713 10.0789 11.1425 9.65182 11.4161 9.34582C10.9146 8.49794 9.92475 7.79668 8.37482 7.79031C7.05282 7.79031 5.94573 8.45969 5.14472 9.63907C4.3437 10.8184 3.87482 12.5142 3.87482 14.516C3.87482 16.5177 4.36975 18.2007 5.1903 19.3801C6.01085 20.5595 7.14399 21.2225 8.46599 21.2289C10.0159 21.2289 11.0123 20.534 11.5072 19.6797C11.2272 19.3801 10.8625 18.9466 10.8625 18.2517C10.8625 17.6652 11.0839 17.1744 11.4421 16.8492C11.8003 16.5241 12.2887 16.3456 12.8097 16.3456C13.8647 16.3456 14.6397 17.2764 14.6462 18.4749C14.6331 20.738 11.9436 23.339 8.14038 23.3454C6.02388 23.3454 3.98553 22.523 2.48119 21.0121H2.47467ZM2.47467 21.0121C0.970333 19.5012 0 17.3019 0 14.5542C0 11.9277 0.950796 9.70919 2.42909 8.14731C3.90738 6.5918 5.91968 5.68655 8.04269 5.68655C11.8524 5.68655 14.5355 8.30031 14.555 10.5507C14.555 11.7556 13.7735 12.6863 12.7185 12.6927C12.1975 12.6927 11.7091 12.5206 11.3509 12.1891C10.9928 11.8576 10.7713 11.3794 10.7713 10.7866C10.7713 10.0789 11.1425 9.65182 11.4161 9.34582C10.9146 8.49794 9.92475 7.79668 8.37482 7.79031C7.05282 7.79031 5.94573 8.45969 5.14472 9.63907C4.3437 10.8184 3.87482 12.5142 3.87482 14.516C3.87482 16.5177 4.36975 18.2007 5.1903 19.3801C6.01085 20.5595 7.14399 21.2225 8.46599 21.2289C10.0159 21.2289 11.0123 20.534 11.5072 19.6797C11.2272 19.3801 10.8625 18.9466 10.8625 18.2517C10.8625 17.6652 11.0839 17.1744 11.4421 16.8492C11.8003 16.5241 12.2887 16.3456 12.8097 16.3456C13.8647 16.3456 14.6397 17.2764 14.6462 18.4749C14.6331 20.738 11.9436 23.339 8.14038 23.3454C6.02388 23.3454 3.98553 22.523 2.48119 21.0121H2.47467ZM2.47467 21.0121C0.970333 19.5012 0 17.3019 0 14.5542C0 11.9277 0.950796 9.70919 2.42909 8.14731C3.90738 6.5918 5.91968 5.68655 8.04269 5.68655C11.8524 5.68655 14.5355 8.30031 14.555 10.5507C14.555 11.7556 13.7735 12.6863 12.7185 12.6927C12.1975 12.6927 11.7091 12.5206 11.3509 12.1891C10.9928 11.8576 10.7713 11.3794 10.7713 10.7866C10.7713 10.0789 11.1425 9.65182 11.4161 9.34582C10.9146 8.49794 9.92475 7.79668 8.37482 7.79031C7.05282 7.79031 5.94573 8.45969 5.14472 9.63907C4.3437 10.8184 3.87482 12.5142 3.87482 14.516C3.87482 16.5177 4.36975 18.2007 5.1903 19.3801C6.01085 20.5595 7.14399 21.2225 8.46599 21.2289C10.0159 21.2289 11.0123 20.534 11.5072 19.6797C11.2272 19.3801 10.8625 18.9466 10.8625 18.2517C10.8625 17.6652 11.0839 17.1744 11.4421 16.8492C11.8003 16.5241 12.2887 16.3456 12.8097 16.3456C13.8647 16.3456 14.6397 17.2764 14.6462 18.4749C14.6331 20.738 11.9436 23.339 8.14038 23.3454C6.02388 23.3454 3.98553 22.523 2.48119 21.0121H2.47467Z" fill="#2F5CA7"/>
</g>
<defs>
<clipPath id="clip0_5_353">
<rect width="162" height="29" fill="white"/>
</clipPath>
</defs>
</svg>
