<svg width="173" height="57" viewBox="0 0 173 57" fill="none" xmlns="http://www.w3.org/2000/svg">
<g clip-path="url(#clip0_5_308)">
<path d="M120.609 56.7857H128.201V54.8036H122.857V44.0826H120.616V56.7857H120.609ZM115.233 56.7857H117.475V44.0826H115.233V56.7857ZM104.514 55.2657C104.514 55.2657 106.026 57 108.776 57C111.356 57 112.848 55.2991 112.848 53.2768C112.848 49.2121 107.029 49.7679 107.029 47.5112C107.029 46.6139 107.85 45.9911 108.893 45.9911C110.444 45.9911 111.63 47.1027 111.63 47.1027L112.607 45.221C112.607 45.221 111.356 43.8616 108.913 43.8616C106.469 43.8616 104.768 45.4353 104.768 47.5447C104.768 51.4487 110.6 51.0536 110.6 53.3237C110.6 54.3616 109.747 54.8639 108.802 54.8639C107.062 54.8639 105.72 53.5246 105.72 53.5246L104.501 55.259L104.514 55.2657ZM98.0566 46.279C98.0566 46.279 98.3172 47.5313 98.5453 48.2478L99.64 51.6496H96.4014L97.4962 48.2478C97.7373 47.5313 98.0175 46.279 98.0175 46.279H98.0501H98.0566ZM101.243 56.7857H103.556L99.2034 44.0826H96.8511L92.4982 56.7857H94.8115L95.8541 53.5313H100.187L101.23 56.7857H101.243ZM84.2747 50.0424V46.0648H85.9819C87.7413 46.0648 88.2496 46.8148 88.2496 48.0335C88.2496 49.2523 87.5002 50.0357 86.2947 50.0357H84.2747V50.0424ZM82.0266 56.7857H84.2682V52.0447H86.4251L88.8817 56.7857H91.3904L88.8491 52.0447C88.608 51.596 88.4321 51.4152 88.4321 51.4152V51.3817C89.7353 50.846 90.5173 49.4331 90.5173 47.913C90.5173 46.2322 89.7353 45.0134 88.4972 44.4442C87.9564 44.1965 87.3504 44.0893 86.008 44.0893H82.0201V56.7924L82.0266 56.7857ZM73.0081 54.8036V51.134H75.4126C76.5464 51.134 77.2046 51.904 77.2046 52.9621C77.2046 54.0201 76.5594 54.8036 75.4061 54.8036H73.0016H73.0081ZM73.0081 49.2723V46.0648H75.1519C76.2011 46.0648 76.7224 46.7277 76.7224 47.6384C76.7224 48.5491 76.162 49.2657 75.191 49.2657H73.0146L73.0081 49.2723ZM70.76 56.7857H75.2366C77.5173 56.7857 79.5048 55.6407 79.5048 53.1027C79.5048 51.8103 78.8597 50.5246 77.5043 50.1161V50.0826C78.4426 49.5603 79.003 48.5424 79.003 47.3639C79.003 45.2746 77.4196 44.0893 75.191 44.0893H70.7665V56.7924L70.76 56.7857Z" fill="#004F9F"/>
<path d="M165.878 28.1049V24.1272H167.585C169.344 24.1272 169.853 24.8772 169.853 26.096C169.853 27.3147 169.103 28.0982 167.898 28.0982H165.878V28.1049ZM163.63 34.8549H165.871V30.1138H168.028L170.485 34.8549H172.993L170.452 30.1138C170.211 29.6652 170.035 29.4844 170.035 29.4844V29.4509C171.338 28.9152 172.12 27.5022 172.12 25.9821C172.12 24.3013 171.338 23.0826 170.1 22.5134C169.559 22.2656 168.953 22.1585 167.611 22.1585H163.623V34.8616L163.63 34.8549ZM150.617 30.2879C150.617 33.1339 152.617 35.0625 155.615 35.0625C158.612 35.0625 160.593 33.1339 160.593 30.2879V22.1451H158.351V30.2678C158.351 31.9888 157.257 32.9531 155.595 32.9531C153.933 32.9531 152.858 31.9888 152.858 30.2879V22.1451H150.617V30.2879ZM137.962 28.4129C137.962 25.9085 139.774 24.0469 142.035 24.0469C144.296 24.0469 146.114 25.9085 146.114 28.4129C146.114 30.9174 144.302 32.9598 142.035 32.9598C139.767 32.9598 137.962 31.0245 137.962 28.4129ZM135.649 28.4129C135.649 32.1562 138.399 35.0692 142.041 35.0692C145.684 35.0692 148.434 32.1562 148.434 28.4129C148.434 24.6696 145.684 21.9375 142.041 21.9375C138.399 21.9375 135.649 24.7835 135.649 28.4129ZM127.445 34.8549H129.686V29.7187H133.779V27.7366H129.686V24.1406H134.548V22.1585H127.445V34.8616V34.8549ZM117.403 34.8549H125.079V32.8727H119.645V29.4509H123.809V27.4687H119.645V24.1406H124.799V22.1585H117.397V34.8616L117.403 34.8549ZM108.235 28.1049V24.1272H109.942C111.702 24.1272 112.203 24.8772 112.203 26.096C112.203 27.3147 111.454 28.0982 110.255 28.0982H108.235V28.1049ZM105.987 34.8549H108.228V30.1138H110.392L112.848 34.8549H115.357L112.816 30.1138C112.575 29.6652 112.399 29.4844 112.399 29.4844V29.4509C113.702 28.9152 114.484 27.5022 114.484 25.9821C114.484 24.3013 113.702 23.0826 112.464 22.5134C111.923 22.2656 111.317 22.1585 109.975 22.1585H105.987V34.8616V34.8549ZM96.8185 28.1049V24.1272H98.5257C100.285 24.1272 100.787 24.8772 100.787 26.096C100.787 27.3147 100.038 28.0982 98.8385 28.0982H96.8185V28.1049ZM94.5769 34.8549H96.8185V30.1138H98.9819L101.439 34.8549H103.947L101.406 30.1138C101.165 29.6652 100.989 29.4844 100.989 29.4844V29.4509C102.292 28.9152 103.074 27.5022 103.074 25.9821C103.074 24.3013 102.292 23.0826 101.054 22.5134C100.513 22.2656 99.9072 22.1585 98.5648 22.1585H94.5769V34.8616V34.8549ZM87.422 24.3482C87.422 24.3482 87.6827 25.6004 87.9108 26.3169L89.0055 29.7187H85.7669L86.8616 26.3169C87.1027 25.6004 87.3829 24.3482 87.3829 24.3482H87.4155H87.422ZM90.6085 34.8549H92.9218L88.5689 22.1518H86.2165L81.8637 34.8549H84.1769L85.2195 31.6004H89.5529L90.5955 34.8549H90.6085ZM69.7825 28.4464C69.7825 32.1897 72.389 35.0692 76.1685 35.0692C79.3223 35.0692 81.0296 33.0134 81.0296 33.0134L79.8436 31.346C79.8436 31.346 78.397 32.9598 76.2532 32.9598C73.6727 32.9598 72.0893 30.8303 72.0893 28.4129C72.0893 25.9955 73.6206 24.0469 76.2336 24.0469C78.2015 24.0469 79.6091 25.3861 79.6091 25.3861L80.6908 23.6652C80.6908 23.6652 79.1399 21.9308 76.1294 21.9308C72.4868 21.9308 69.776 24.7567 69.776 28.4464" fill="#004F9F"/>
<path d="M120.616 6.47545C120.616 3.97098 122.427 2.10937 124.695 2.10937C126.963 2.10937 128.774 3.97098 128.774 6.47545C128.774 8.97991 126.963 11.0223 124.695 11.0223C122.427 11.0223 120.616 9.08705 120.616 6.47545ZM118.303 6.47545C118.303 10.2187 121.052 13.1317 124.695 13.1317C128.338 13.1317 131.087 10.2187 131.087 6.47545C131.087 2.73214 128.338 0 124.695 0C121.052 0 118.303 2.84598 118.303 6.47545ZM110.49 6.52902V2.19643H112.633C113.904 2.19643 114.673 3.04018 114.673 4.34598C114.673 5.65178 113.904 6.52902 112.601 6.52902H110.49ZM108.248 12.9174H110.49V8.53125H113.018C115.331 8.53125 116.954 6.81696 116.954 4.34598C116.954 1.875 115.338 0.214286 113.018 0.214286H108.248V12.9174ZM95.2285 8.35714C95.2285 11.2031 97.229 13.1317 100.226 13.1317C103.224 13.1317 105.205 11.2031 105.205 8.35714V0.214286H102.963V8.33705C102.963 10.058 101.869 11.0223 100.207 11.0223C98.5453 11.0223 97.4701 10.058 97.4701 8.35714V0.214286H95.2285V8.35714ZM86.3403 6.17411V2.19643H88.0476C89.807 2.19643 90.3153 2.94643 90.3153 4.16518C90.3153 5.38393 89.5659 6.16741 88.3604 6.16741H86.3403V6.17411ZM84.0922 12.9174H86.3338V8.17634H88.4907L90.9473 12.9174H93.4561L90.9148 8.17634C90.6737 7.72768 90.4977 7.54687 90.4977 7.54687V7.51339C91.801 6.97768 92.5829 5.56473 92.5829 4.04464C92.5829 2.36384 91.801 1.14509 90.5629 0.575893C90.022 0.328125 89.416 0.220982 88.0737 0.220982H84.0857V12.9241L84.0922 12.9174ZM69.7825 6.54911C69.7825 10.5402 72.5845 13.1317 75.8427 13.1317C78.1429 13.1317 79.4331 11.7723 79.4331 11.7723H79.4657C79.4657 11.7723 79.4461 12.0402 79.4461 12.308V12.9174H81.3619V6.22768H77.4457V8.20982H79.3419V9.69643C79.3419 9.69643 78.1038 11.0223 76.2402 11.0223C73.9269 11.0223 72.0958 9.22768 72.0958 6.47545C72.0958 4.07812 73.575 2.10937 76.3444 2.10937C78.3123 2.10937 79.6351 3.32812 79.6351 3.32812L80.7494 1.60714C80.7494 1.60714 79.1855 0 76.1489 0C72.4738 0 69.776 2.85937 69.776 6.54911" fill="#004F9F"/>
<path d="M15.8215 11.4978C15.9192 11.404 16.0039 11.3638 16.0821 11.3638C16.219 11.3638 16.3167 11.4911 16.3102 11.6451C16.3102 11.7388 16.2646 11.8393 16.1799 11.9263C12.7458 16.3125 10.2501 21.442 10.2501 28.5536C10.2501 35.6652 12.7458 40.6875 16.1799 45.0736C16.2646 45.1607 16.3037 45.2612 16.3102 45.3549C16.3102 45.5089 16.219 45.6362 16.0821 45.6362C16.0039 45.6362 15.9127 45.596 15.8215 45.5022L1.19899 30.9576C0.46917 30.3147 0 29.5647 0 28.5C0 27.4353 0.462654 26.6786 1.19899 26.0424L15.828 11.4978" fill="#E30613"/>
<path d="M27.0685 10.2656C21.3407 10.2656 19.0991 18.6094 19.0991 28.5469C19.0991 38.4844 21.3407 46.721 27.0685 46.721C30.5026 46.721 33.4349 44.6518 33.4414 42.9509C33.4414 42.5826 33.3046 42.221 32.9983 41.9129C31.3692 40.2991 30.7306 38.6786 30.7241 37.2522C30.7176 34.5268 33.0113 32.4978 35.1356 32.4978C38.0484 32.4978 39.7687 34.8549 39.7687 37.9018C39.7687 40.7879 38.5697 43.192 37.2664 45.1205C37.2143 45.2009 37.1948 45.2879 37.1948 45.3616C37.1948 45.5156 37.2795 45.6362 37.4098 45.6362C37.488 45.6362 37.5792 45.596 37.6835 45.4888L52.3125 30.9509C53.0423 30.308 53.5115 29.558 53.5115 28.4933C53.5115 27.4286 53.0423 26.6719 52.3125 26.0357L37.6835 11.4911C37.5857 11.3906 37.488 11.3438 37.4098 11.3438C37.2795 11.3438 37.1948 11.471 37.1948 11.6183C37.1948 11.6987 37.2143 11.7857 37.2664 11.8661C38.5697 13.7879 39.7687 16.1987 39.7687 19.0848C39.7687 22.1317 38.0484 24.4888 35.1356 24.4888C33.0179 24.4888 30.7176 22.4598 30.7241 19.7344C30.7241 18.308 31.3692 16.6875 32.9983 15.0737C33.3046 14.7589 33.4414 14.404 33.4414 14.0357C33.4284 12.3348 30.5026 10.2656 27.0685 10.2656Z" fill="#004F9F"/>
</g>
<defs>
<clipPath id="clip0_5_308">
<rect width="173" height="57" fill="white"/>
</clipPath>
</defs>
</svg>
