<svg width="166" height="27" viewBox="0 0 166 27" fill="none" xmlns="http://www.w3.org/2000/svg">
<g clip-path="url(#clip0_5_358)">
<path d="M0 20.9915L1.36393 18.3176C2.36066 19.0226 4.15082 19.8165 5.51475 19.8165C7.21311 19.8165 7.87541 19.0226 7.87541 18.1715C7.9082 17.1743 7.05574 16.7932 5.27213 16.2343C2.26885 15.3514 0.577049 14.3288 0.577049 11.6231C0.577049 9.15876 2.51803 7.39941 6.03279 7.39941C7.84918 7.39941 9.51475 7.95834 10.8525 8.8666L9.48852 11.3056C8.70164 10.8355 7.37049 10.1305 5.88197 10.1305C4.57705 10.1305 3.79016 10.6323 3.79016 11.5977C3.79016 12.3917 4.36721 12.9188 6.27541 13.4777C9.51475 14.4178 11.1213 15.5928 11.1213 18.0571C11.1213 20.8454 8.78688 22.5476 5.54754 22.5476C3.3377 22.5476 1.21311 21.8426 0 20.9915Z" fill="#0068A1"/>
<path d="M24.636 19.3211C23.6065 21.4615 21.6328 22.5794 19.3049 22.5794C15.3967 22.5794 12.2754 19.6704 12.2754 14.9767C12.2754 10.283 15.3967 7.40576 19.3049 7.40576C21.6393 7.40576 23.6065 8.52362 24.636 10.6641V7.64077H27.6656V22.319H24.636V19.3274V19.3211ZM20.059 10.1623C17.3639 10.1623 15.5147 12.2456 15.5147 15.0084C15.5147 17.7713 17.3639 19.8228 20.059 19.8228C22.7541 19.8228 24.577 17.6824 24.577 14.9513C24.577 12.2202 22.7278 10.1686 20.059 10.1686V10.1623Z" fill="#0068A1"/>
<path d="M43.3574 22.3126H40.3279V13.3888C40.3279 11.5406 39.3246 10.1306 37.2984 10.1306C35.0885 10.1306 33.541 12.0106 33.541 14.4178V22.3126H30.5115V7.64078H33.541V10.2512C34.4525 8.40296 36.118 7.37402 38.059 7.37402C40 7.37402 41.7574 8.40296 42.6623 10.1623C43.9344 8.22512 45.6328 7.37402 47.6656 7.37402C50.8459 7.37402 53.1803 9.6923 53.1803 13.4206V22.3126H50.1508V13.3888C50.1508 11.5406 49.1541 10.1306 47.1213 10.1306C44.9115 10.1306 43.3639 12.0106 43.3639 14.4178V22.3126H43.3574Z" fill="#0068A1"/>
<path d="M54.7541 3.41071H58.0262L56.118 9.19052H53.6L54.7541 3.41071Z" fill="#0068A1"/>
<path d="M56.9377 20.9915L58.3017 18.3176C59.2984 19.0226 61.0886 19.8165 62.4525 19.8165C64.1509 19.8165 64.8131 19.0226 64.8131 18.1715C64.8459 17.1743 63.9935 16.7932 62.2099 16.2343C59.2066 15.3514 57.5148 14.3288 57.5148 11.6231C57.5148 9.15876 59.4558 7.39941 62.9705 7.39941C64.7869 7.39941 66.4525 7.95834 67.7902 8.8666L66.4263 11.3056C65.6394 10.8355 64.3082 10.1305 62.8197 10.1305C61.5148 10.1305 60.7279 10.6323 60.7279 11.5977C60.7279 12.3917 61.305 12.9188 63.2132 13.4777C66.4525 14.4178 68.0591 15.5928 68.0591 18.0571C68.0591 20.8454 65.7246 22.5476 62.4853 22.5476C60.2754 22.5476 58.1509 21.8426 56.9377 20.9915Z" fill="#0068A1"/>
<path d="M74.9377 14.9767C74.9377 10.3084 78.2689 7.40576 82.905 7.40576C85.0886 7.40576 87.023 8.07902 88.5115 9.52079L86.6623 11.7247C85.5082 10.6069 84.1443 10.1686 82.9377 10.1686C80.1509 10.1686 78.1771 11.7819 78.1771 14.9513C78.1771 18.1207 80.1443 19.7974 82.9377 19.7974C84.1509 19.7974 85.5148 19.3274 86.6951 18.1524L88.5443 20.3246C87.0623 21.76 85.1476 22.554 82.905 22.554C78.3017 22.554 74.9377 19.645 74.9377 14.983V14.9767Z" fill="#0068A1"/>
<path d="M94.7934 22.5476C91.6721 22.6619 89.9475 21.0804 89.9475 17.53V2.35637L92.977 1.77203V17.5363C92.977 18.9463 93.7639 19.5942 94.859 19.5942H95.6459V22.4714C95.3705 22.5286 95.0688 22.5603 94.8 22.5603L94.7934 22.5476Z" fill="#0068A1"/>
<path d="M96.918 16.2661V7.63446H99.9475V16.5011C99.9475 18.4383 101.22 19.7594 103.344 19.7594C105.469 19.7594 106.741 18.4383 106.741 16.5011V7.63446H109.77V16.2661C109.77 20.2865 107.193 22.5477 103.344 22.5477C99.495 22.5477 96.918 20.2865 96.918 16.2661Z" fill="#0068A1"/>
<path d="M120.997 22.5794C118.662 22.5794 116.695 21.4615 115.666 19.3211V22.3444H112.636V2.35637L115.666 1.77203V10.6641C116.695 8.52362 118.662 7.40577 120.997 7.40577C124.905 7.40577 128.026 10.3147 128.026 15.0084C128.026 19.7022 124.905 22.5794 120.997 22.5794ZM120.236 19.8228C122.931 19.8228 124.78 17.7396 124.78 14.9767C124.78 12.2138 122.931 10.1623 120.236 10.1623C117.541 10.1623 115.718 12.3027 115.718 15.0339C115.718 17.765 117.567 19.8165 120.236 19.8165V19.8228Z" fill="#0068A1"/>
<path d="M148.544 2.06422L146.413 0L133.607 12.4107C132.984 13.0141 132.984 13.9922 133.607 14.5956L146.42 27L148.544 24.9421C149.194 24.3133 149.194 23.2908 148.544 22.662L139.082 13.5032L148.538 4.33804C149.187 3.70924 149.187 2.69301 148.538 2.06422H148.544Z" fill="#0068A1"/>
<path d="M165.561 12.4679L152.689 0L150.551 2.07057C149.908 2.69301 149.908 3.70289 150.551 4.32534L160.02 13.4968L150.466 22.7509C149.869 23.3289 149.869 24.2625 150.466 24.8405L152.689 26.9936L165.561 14.5194C166.144 13.9478 166.144 13.0268 165.561 12.4615V12.4679Z" fill="#0068A1"/>
<path d="M128.511 21.1948V21.3281H128.111V22.338H127.947V21.3281H127.547V21.1948H128.505H128.511Z" fill="#0068A1"/>
<path d="M128.656 21.1948H128.885L129.226 22.1602L129.561 21.1948H129.79V22.338H129.639V21.6648C129.639 21.6648 129.639 21.6013 129.639 21.5504C129.639 21.4996 129.639 21.4361 129.639 21.379L129.305 22.3444H129.148L128.807 21.379V21.4171C128.807 21.4171 128.807 21.4869 128.807 21.5441C128.807 21.6013 128.807 21.6457 128.807 21.6711V22.3444H128.656V21.2011V21.1948Z" fill="#0068A1"/>
</g>
<defs>
<clipPath id="clip0_5_358">
<rect width="166" height="27" fill="white"/>
</clipPath>
</defs>
</svg>
