<svg width="292" height="124" viewBox="0 0 292 124" fill="none" xmlns="http://www.w3.org/2000/svg">
<g clip-path="url(#clip0_5_184)">
<path d="M292 0.545471L272.167 124H252.778L267.745 34.1238L269.32 20.322H248.903V0.545471H292Z" fill="#E5202D"/>
<path d="M35.7535 6.95161C32.0435 2.98107 26.885 0.30445 21.0913 0.30445L16.0218 0H0V124H16.0218V72.5099H21.0913C26.974 72.5099 32.3357 70.125 36.1601 65.8881C39.6923 62.0698 41.8522 56.7799 41.8522 50.5387V22.0092C41.8522 16.5545 39.5017 11.0363 35.7535 6.95161ZM25.8305 50.5387C25.8305 52.5811 25.2587 54.1287 24.3566 55.1562C23.5562 56.0188 22.3746 56.5136 21.0913 56.5136H16.0218V16.3008H21.0913C22.1204 16.3008 23.175 16.897 24.0517 17.8484C25.1444 19.0535 25.8305 20.5631 25.8305 22.0092V50.5387Z" fill="#1D4484"/>
<path d="M49.8695 49.5493V67.1947V83.2671H77.7329V67.2708H65.8785V67.1947V51.4013H77.7329V38.6017H65.8785V15.9963H77.7329V0H49.8695V49.5493Z" fill="#1D4484"/>
<path d="M129 17.9499C129 12.6601 126.383 7.94107 122.139 4.65555C118.48 1.77596 113.55 0 108.252 0H87.1223V124H103.169V51.414H108.252C110.297 51.414 111.352 51.7058 111.733 52.3147C112.635 53.7608 112.978 56.6658 112.978 60.5983V124H129V67.867C129 61.093 128.047 55.3846 125.176 50.9193C125.099 50.8051 125.023 50.6909 124.947 50.5768C127.488 47.2532 129 43.1304 129 38.6017V17.9499ZM112.978 34.5551C112.978 35.646 112.521 36.6228 111.771 37.3078C110.933 38.107 109.687 38.6017 108.252 38.6017H103.169V15.9963H108.252C109.916 15.9963 111.352 16.453 112.33 17.2014C112.724 17.5059 112.978 17.8103 112.978 17.9499V34.5551Z" fill="#1D4484"/>
<path d="M157.067 23.3919H141.057V124H157.067V23.3919Z" fill="#1D4484"/>
<path d="M185.641 15.9963V38.6017H197.178V51.414H185.641V124H169.62V0H199.681V15.9963H185.641Z" fill="#1D4484"/>
<path d="M157.079 0H141.057V15.9963H157.079V0Z" fill="#1D4484"/>
<path d="M77.7329 90.0919H49.8695V106.025H77.7329V90.0919Z" fill="#1D4484"/>
<path d="M244.71 75.2372V75.2119L238.23 0H214.191L207.724 75.0343V74.6156L203.467 124H219.515L221.039 100.215H231.382L232.881 124H248.903L244.71 75.2372ZM221.827 87.4026L226.223 16.9731L230.581 87.4026H221.827Z" fill="#1D4484"/>
</g>
<defs>
<clipPath id="clip0_5_184">
<rect width="292" height="124" fill="white"/>
</clipPath>
</defs>
</svg>
